<mxfile host="app.diagrams.net" modified="2024-07-05T15:08:02.747Z" agent="Mozilla/5.0 (Windows NT 10.0; Win64; x64) AppleWebKit/537.36 (KHTML, like Gecko) Chrome/126.0.0.0 Safari/537.36" version="24.6.4" etag="Mvkti-Unlp8r8EB-DZ5O" type="github">
  <diagram name="Page-1" id="MTIrGwwygUWKDN8LrHqr">
    <mxGraphModel>
      <root>
        <mxCell id="0" />
        <mxCell id="1" parent="0" />
      </root>
    </mxGraphModel>
  </diagram>
</mxfile>
